<svg xmlns="http://www.w3.org/2000/svg" viewBox="0 0 1003 798" width="1003" height="798" style="width: 100%; height: 100%; transform: translate3d(0px, 0px, 0px);" preserveAspectRatio="xMidYMid meet"><defs><clipPath id="__lottie_element_2"><rect width="1003" height="798" x="0" y="0"></rect></clipPath></defs><g clip-path="url(#__lottie_element_2)"><g style="display: block;" transform="matrix(1,0,0,1,53.571014404296875,506.57000732421875)" opacity="1"><g opacity="1" transform="matrix(1,0,0,1,433.54998779296875,105.20800018310547)"><path fill="rgb(239,244,247)" fill-opacity="1" d=" M433.29998779296875,0.0010000000474974513 C433.29998779296875,57.96699905395508 239.30499267578125,104.95800018310547 0,104.95800018310547 C-239.30499267578125,104.95800018310547 -433.29998779296875,57.96699905395508 -433.29998779296875,0.0010000000474974513 C-433.29998779296875,-57.965999603271484 -239.30499267578125,-104.95800018310547 0,-104.95800018310547 C239.30499267578125,-104.95800018310547 433.29998779296875,-57.965999603271484 433.29998779296875,0.0010000000474974513z"></path></g></g><g style="display: block;" transform="matrix(1,0,0,1,75.30499267578125,412.61700439453125)" opacity="1"><g opacity="1" transform="matrix(1,0,0,1,0,0)"><path stroke-linecap="round" stroke-linejoin="round" fill-opacity="0" stroke="rgb(181,201,223)" stroke-opacity="1" stroke-width="1" d=" M0.5,0.5 C0.5,0.5 873.8740234375,0.5 873.8740234375,0.5"></path></g></g><g style="display: block;" transform="matrix(1,0,0,1,300.13800048828125,81.01602172851562)" opacity="1"><g opacity="1" transform="matrix(1,0,0,1,268.1549987792969,345.12298583984375)"><path fill="rgb(150,28,34)" fill-opacity="1" d=" M9.534000396728516,140.02699279785156 C9.534000396728516,140.02699279785156 22.243000030517578,140.02699279785156 22.243000030517578,140.02699279785156 C22.243000030517578,140.02699279785156 -0.7940000295639038,-140.02699279785156 -0.7940000295639038,-140.02699279785156 C-0.7940000295639038,-140.02699279785156 -22.243000030517578,-140.02699279785156 -22.243000030517578,-140.02699279785156 C-22.243000030517578,-140.02699279785156 9.534000396728516,140.02699279785156 9.534000396728516,140.02699279785156z"></path></g><g opacity="1" transform="matrix(1,0,0,1,156.3459930419922,379.4020080566406)"><path fill="rgb(150,28,34)" fill-opacity="1" d=" M-9.532999992370605,140.02699279785156 C-9.532999992370605,140.02699279785156 -22.243999481201172,140.02699279785156 -22.243999481201172,140.02699279785156 C-22.243999481201172,140.02699279785156 0.7940000295639038,-140.02699279785156 0.7940000295639038,-140.02699279785156 C0.7940000295639038,-140.02699279785156 22.243999481201172,-140.02699279785156 22.243999481201172,-140.02699279785156 C22.243999481201172,-140.02699279785156 -9.532999992370605,140.02699279785156 -9.532999992370605,140.02699279785156z"></path></g><g opacity="1" transform="matrix(1,0,0,1,67.1760025024414,286.7229919433594)"><path fill="rgb(150,28,34)" fill-opacity="1" d=" M-54.215999603271484,196.7220001220703 C-54.215999603271484,196.7220001220703 -66.9260025024414,196.7220001220703 -66.9260025024414,196.7220001220703 C-66.9260025024414,196.7220001220703 45.47700119018555,-196.7220001220703 45.47700119018555,-196.7220001220703 C45.47700119018555,-196.7220001220703 66.9260025024414,-196.7220001220703 66.9260025024414,-196.7220001220703 C66.9260025024414,-196.7220001220703 -54.215999603271484,196.7220001220703 -54.215999603271484,196.7220001220703z"></path></g><g opacity="1" transform="matrix(1,0,0,1,174.41799926757812,145.4219970703125)"><path fill="rgb(150,28,34)" fill-opacity="1" d=" M-115.98100280761719,-110.11799621582031 C-115.98100280761719,-110.11799621582031 52.5620002746582,-143.99899291992188 52.5620002746582,-143.99899291992188 C52.5620002746582,-143.99899291992188 115.98100280761719,100.1259994506836 115.98100280761719,100.1259994506836 C115.98100280761719,100.1259994506836 -46.479000091552734,143.99899291992188 -46.479000091552734,143.99899291992188 C-46.479000091552734,143.99899291992188 -115.98100280761719,-110.11799621582031 -115.98100280761719,-110.11799621582031z"></path></g><g opacity="1" transform="matrix(1,0,0,1,172.53700256347656,138.38600158691406)"><path fill="rgb(236,236,230)" fill-opacity="1" d=" M-105.03099822998047,-108.81500244140625 C-105.03099822998047,-108.81500244140625 47.29399871826172,-138.13600158691406 47.29399871826172,-138.13600158691406 C47.29399871826172,-138.13600158691406 111.8010025024414,94.47799682617188 111.8010025024414,94.47799682617188 C111.8010025024414,94.47799682617188 -43.2760009765625,138.13499450683594 -43.2760009765625,138.13499450683594 C-43.2760009765625,138.13499450683594 -105.03099822998047,-87.96399688720703 -105.03099822998047,-87.96399688720703 C-105.03099822998047,-87.96399688720703 -111.8010025024414,-107.51200103759766 -105.03099822998047,-108.81500244140625z"></path></g></g><g style="display: block;" transform="matrix(1,0,0,1,445.5,188.5019989013672)" opacity="1"><g opacity="1" transform="matrix(1,0,0,1,47.09600067138672,32.85599899291992)"><path fill="rgb(213,213,210)" fill-opacity="1" d=" M30.961999893188477,20.260000228881836 C13.230999946594238,-23.889999389648438 5.50600004196167,-32.60599899291992 1.781999945640564,-31.67799949645996 C-2.427999973297119,-30.628999710083008 0.6129999756813049,-17.125 -7.179999828338623,-0.27399998903274536 C-14.532999992370605,15.625 -24.32200050354004,26.381999969482422 -30.961999893188477,32.60599899291992 C-30.961999893188477,32.60599899291992 30.961999893188477,20.260000228881836 30.961999893188477,20.260000228881836z"></path></g><g opacity="1" transform="matrix(1,0,0,1,43.58599853515625,50)"><path fill="rgb(245,198,42)" fill-opacity="1" d=" M43.33599853515625,5.993000030517578 C37.82899856567383,-1.7200000286102295 29.732999801635742,-10.234999656677246 19.709999084472656,-10.420000076293945 C10.074999809265137,-10.597999572753906 6.716000080108643,-2.928999900817871 -2.3980000019073486,-3.497999906539917 C-16.927000045776367,-4.4039998054504395 -22.23699951171875,-24.759000778198242 -29.75,-23.802000045776367 C-34.95600128173828,-23.138999938964844 -40.27799987792969,-12.36299991607666 -43.33599853515625,24.757999420166016 C-43.33599853515625,24.757999420166016 43.33599853515625,5.993000030517578 43.33599853515625,5.993000030517578z"></path></g></g><g style="display: block;" transform="matrix(1,0,0,1,394.5240173339844,114.48600769042969)" opacity="1"><g opacity="1" transform="matrix(1,0,0,1,58.96900177001953,20.136999130249023)"><path stroke-linecap="butt" stroke-linejoin="miter" fill-opacity="0" stroke-miterlimit="10" stroke="rgb(150,28,34)" stroke-opacity="1" stroke-width="1" d=" M-56.46900177001953,17.63599967956543 C-47.303001403808594,-1.909999966621399 -42.797000885009766,-6.144999980926514 -40.40700149536133,-5.515999794006348 C-36.915000915527344,-4.5980000495910645 -37.67900085449219,6.775000095367432 -34.23699951171875,7.313000202178955 C-30.158000946044922,7.951000213623047 -26.253000259399414,-7.572999954223633 -20.611000061035156,-7.173999786376953 C-16.82900047302246,-6.906000137329102 -16.091999053955078,0.24699999392032623 -12.12399959564209,0.44699999690055847 C-7.218999862670898,0.6930000185966492 -4.388999938964844,-10.032999992370605 -0.0820000022649765,-9.413999557495117 C2.7809998989105225,-9.001999855041504 2.6679999828338623,-4.098999977111816 5.916999816894531,-3.4070000648498535 C10.067000389099121,-2.5239999294281006 12.576000213623047,-10.032999992370605 18.249000549316406,-9.901000022888184 C22.200000762939453,-9.809000015258789 22.562000274658203,-6.13100004196167 26.357999801635742,-6.059999942779541 C32.29899978637695,-5.947999954223633 34.90599822998047,-14.890000343322754 40.06800079345703,-14.133000373840332 C42.566001892089844,-13.765999794006348 42.81399917602539,-11.54699993133545 45.45399856567383,-10.996999740600586 C49.32899856567383,-10.1899995803833 53.441001892089844,-14.005999565124512 56.46900177001953,-17.63599967956543"></path></g><g opacity="1" transform="matrix(1,0,0,1,48.87900161743164,52.03499984741211)"><path stroke-linecap="butt" stroke-linejoin="miter" fill-opacity="0" stroke-miterlimit="10" stroke="rgb(150,28,34)" stroke-opacity="1" stroke-width="1" d=" M-33.92599868774414,10.312000274658203 C-29.014999389648438,10.371999740600586 -26.597000122070312,-0.45500001311302185 -22.270000457763672,-0.0010000000474974513 C-19.393999099731445,0.3019999861717224 -19.319000244140625,5.206999778747559 -16.04599952697754,5.77400016784668 C-11.864999771118164,6.499000072479248 -9.642999649047852,-1.100000023841858 -3.9690001010894775,-1.184000015258789 C-0.017999999225139618,-1.2430000305175781 0.4830000102519989,2.4179999828338623 4.2789998054504395,2.3450000286102295 C10.218999862670898,2.2300000190734863 12.484000205993652,-6.807000160217285 17.67099952697754,-6.245999813079834 C20.180999755859375,-5.974999904632568 20.513999938964844,-3.765000104904175 23.17300033569336,-3.315999984741211 C27.076000213623047,-2.6570000648498535 31.038999557495117,-6.629000186920166 33.92599868774414,-10.373000144958496"></path></g></g><g style="display: block;" transform="matrix(1,0,0,1,433.8529968261719,288.5270080566406)" opacity="1"><g opacity="1" transform="matrix(1,0,0,1,19.554000854492188,34.638999938964844)"><path stroke-linecap="butt" stroke-linejoin="miter" fill-opacity="0" stroke-miterlimit="10" stroke="rgb(150,28,34)" stroke-opacity="1" stroke-width="1" d=" M5.366000175476074,-13.628999710083008 C5.366000175476074,-13.628999710083008 -17.05500030517578,-6.730999946594238 -17.05500030517578,-6.730999946594238 C-17.05500030517578,-6.730999946594238 -9.581000328063965,13.12600040435791 -5.677000045776367,13.628999710083008 C-5.677000045776367,13.628999710083008 9.342000007629395,10.371000289916992 17.05500030517578,6.635000228881836 C17.05500030517578,6.635000228881836 9.246000289916992,1.1979999542236328 5.366000175476074,-13.628999710083008z"></path></g><g opacity="1" transform="matrix(1,0,0,1,101.4209976196289,16.128999710083008)"><path stroke-linecap="butt" stroke-linejoin="miter" fill-opacity="0" stroke-miterlimit="10" stroke="rgb(150,28,34)" stroke-opacity="1" stroke-width="1" d=" M5.364999771118164,-13.628999710083008 C5.364999771118164,-13.628999710083008 -17.054000854492188,-6.730999946594238 -17.054000854492188,-6.730999946594238 C-17.054000854492188,-6.730999946594238 -9.581000328063965,13.12600040435791 -5.677000045776367,13.628999710083008 C-5.677000045776367,13.628999710083008 9.340999603271484,10.371000289916992 17.054000854492188,6.635000228881836 C17.054000854492188,6.635000228881836 9.244999885559082,1.1979999542236328 5.364999771118164,-13.628999710083008z"></path></g><g opacity="1" transform="matrix(1,0,0,1,55.23400115966797,16.128999710083008)"><path stroke-linecap="butt" stroke-linejoin="miter" fill-opacity="0" stroke-miterlimit="10" stroke="rgb(150,28,34)" stroke-opacity="1" stroke-width="1" d=" M5.364999771118164,-13.628999710083008 C5.364999771118164,-13.628999710083008 -17.054000854492188,-6.730999946594238 -17.054000854492188,-6.730999946594238 C-17.054000854492188,-6.730999946594238 -9.367886543273926,11.065901756286621 -5.463886260986328,11.568902015686035 C-5.463886260986328,11.568902015686035 9.555113792419434,8.310901641845703 17.267112731933594,4.574901580810547 C17.267112731933594,4.574901580810547 9.246000289916992,1.1979999542236328 5.364999771118164,-13.628999710083008z"></path></g></g><g style="display: block;" transform="matrix(0.989441454410553,-0.14493292570114136,0.14493292570114136,0.989441454410553,247.03433227539062,146.2274169921875)" opacity="1"><g opacity="1" transform="matrix(1,0,0,1,3.2090001106262207,6.855999946594238)"><path fill="rgb(146,86,62)" fill-opacity="1" d=" M-2.6429998874664307,-6.605999946594238 C-2.6429998874664307,-6.605999946594238 2.9590001106262207,4.8460001945495605 2.9590001106262207,4.8460001945495605 C2.9590001106262207,4.8460001945495605 -2.9590001106262207,6.605999946594238 -2.9590001106262207,6.605999946594238"></path></g></g><g style="display: block;" transform="matrix(0.989441454410553,-0.14493292570114136,0.14493292570114136,0.989441454410553,195.53456115722656,123.22354125976562)" opacity="1"><g opacity="1" transform="matrix(1,0,0,1,25.433000564575195,40.479000091552734)"><path fill="rgb(170,103,71)" fill-opacity="1" d=" M7.88700008392334,40.22800064086914 C7.88700008392334,40.22800064086914 3.5399999618530273,19.150999069213867 6.427999973297119,15.883000373840332 C8.470999717712402,13.571999549865723 15.869000434875488,14.888999938964844 18.485000610351562,13.253000259399414 C22.354000091552734,10.833999633789062 23.895999908447266,-3.5199999809265137 23.895999908447266,-3.5199999809265137 C25.18400001525879,-27.684999465942383 7.099999904632568,-34.86600112915039 7.099999904632568,-34.86600112915039 C-16.125,-40.229000091552734 -21.926000595092773,-24.399999618530273 -21.926000595092773,-24.399999618530273 C-25.183000564575195,-8.767000198364258 -21.266000747680664,1.434999942779541 -15.515999794006348,8.029999732971191 C-15.515999794006348,8.029999732971191 -8.824000358581543,27.69700050354004 -18.597999572753906,33.816001892089844"></path></g><g opacity="1" transform="matrix(1,0,0,1,29.23200035095215,60.29600143432617)"><path fill="rgb(146,86,62)" fill-opacity="1" d=" M4.949999809265137,-5.077000141143799 C4.949999809265137,-5.077000141143799 -0.6639999747276306,-3.490000009536743 -4.949999809265137,-4.466000080108643 C-4.949999809265137,-4.466000080108643 -1.88100004196167,3.677000045776367 1.812000036239624,5.077000141143799 C1.812000036239624,5.077000141143799 1.2640000581741333,1.656000018119812 1.902999997138977,-2.1540000438690186 C1.902999997138977,-2.1540000438690186 1.9220000505447388,-4.4679999351501465 4.949999809265137,-5.077000141143799z"></path></g><g opacity="1" transform="matrix(1,0,0,1,20.97800064086914,80.64399719238281)"><path fill="rgb(170,103,71)" fill-opacity="1" d=" M12.342000007629395,0.06300000101327896 C12.342000007629395,0.06300000101327896 -0.017999999225139618,7.816999912261963 -0.017999999225139618,7.816999912261963 C-0.017999999225139618,7.816999912261963 -12.342000007629395,-7.816999912261963 -12.342000007629395,-7.816999912261963"></path></g></g><g style="display: block;" transform="matrix(0.989441454410553,-0.14493292570114136,0.14493292570114136,0.989441454410553,175.59263610839844,118.12899017333984)" opacity="1"><g opacity="1" transform="matrix(1,0,0,1,31.163000106811523,34.00600051879883)"><path fill="rgb(0,0,0)" fill-opacity="1" d=" M18.378999710083008,16.09000015258789 C15.604000091552734,20.332000732421875 1.8009999990463257,33.755001068115234 -1.4320000410079956,33.42300033569336 C-4.664999961853027,33.09000015258789 -14.213000297546387,28.704999923706055 -21.92300033569336,16.09000015258789 C-28.822999954223633,4.798999786376953 -30.913000106811523,-6.357999801635742 -18.57699966430664,-19.476999282836914 C-5.548999786376953,-33.33100128173828 3.6570000648498535,-33.75600051879883 16.548999786376953,-27.631999969482422 C24.913000106811523,-23.659000396728516 30.913000106811523,-11.045999526977539 30.913000106811523,-11.045999526977539 C30.913000106811523,-11.045999526977539 24.76799964904785,5.306000232696533 23.868000030517578,6.868000030517578 C21.777000427246094,10.496000289916992 19.756000518798828,13.984999656677246 18.378999710083008,16.09000015258789z"></path></g><g opacity="1" transform="matrix(1,0,0,1,28.47599983215332,28.235000610351562)"><path stroke-linecap="round" stroke-linejoin="round" fill-opacity="0" stroke="rgb(253,131,90)" stroke-opacity="1" stroke-width="1.284" d=" M19.236000061035156,-21.861000061035156 C19.236000061035156,-21.861000061035156 10.3149995803833,16.445999145507812 -19.236000061035156,21.861000061035156"></path></g></g><g style="display: block;" transform="matrix(0.989441454410553,-0.14493292570114136,0.14493292570114136,0.989441454410553,205.56439208984375,101.70973205566406)" opacity="1"><g opacity="1" transform="matrix(1,0,0,1,17.365999221801758,15.274999618530273)"><path fill="rgb(0,0,0)" fill-opacity="1" d=" M-16.516000747680664,3.2109999656677246 C-16.516000747680664,10.746000289916992 -8.020999908447266,15.024999618530273 -0.4860000014305115,15.024999618530273 C7.047999858856201,15.024999618530273 16.517000198364258,11.892999649047852 15.24899959564209,4.466000080108643 C13.78499984741211,-4.10699987411499 1.093000054359436,-15.024999618530273 -6.288000106811523,-13.515999794006348 C-16.517000198364258,-11.425000190734863 -16.516000747680664,-4.323999881744385 -16.516000747680664,3.2109999656677246z"></path></g><g opacity="1" transform="matrix(1,0,0,1,17.52199935913086,15.27400016784668)"><path stroke-linecap="round" stroke-linejoin="round" fill-opacity="0" stroke="rgb(253,131,90)" stroke-opacity="1" stroke-width="1.284" d=" M14.312000274658203,9.098999977111816 C14.312000274658203,9.098999977111816 -4.824999809265137,2.8440001010894775 -14.312000274658203,-9.098999977111816"></path></g></g><g style="display: block;" transform="matrix(1,0,0,1,206.0679931640625,409.1159973144531)" opacity="1"><g opacity="1" transform="matrix(1,0,0,1,15.484999656677246,76.38500213623047)"><path fill="rgb(170,103,71)" fill-opacity="1" d=" M-3.385999917984009,76.13400268554688 C-3.385999917984009,76.13400268554688 -15.234999656677246,-76.13400268554688 -15.234999656677246,-76.13400268554688 C-15.234999656677246,-76.13400268554688 14.317000389099121,-76.13400268554688 14.317000389099121,-76.13400268554688 C14.317000389099121,-76.13400268554688 14.020000457763672,-33.500999450683594 14.317000389099121,-24.507999420166016 C15.234999656677246,3.2909998893737793 8.741000175476074,74.47699737548828 8.741000175476074,74.47699737548828 C8.741000175476074,74.47699737548828 -3.385999917984009,76.13400268554688 -3.385999917984009,76.13400268554688z"></path></g></g><g style="display: block;" transform="matrix(1,0,0,1,208.7729949951172,555.9879760742188)" opacity="1"><g opacity="1" transform="matrix(1,0,0,1,16.482999801635742,11.95199966430664)"><path fill="rgb(0,0,0)" fill-opacity="1" d=" M-6.122000217437744,-9.581000328063965 C-10.276000022888184,-6.994999885559082 -16.232999801635742,2.253999948501587 -13.824000358581543,5.821000099182129 C-9.85099983215332,11.70199966430664 13.338000297546387,8.894000053405762 14.512999534606934,4.1529998779296875 C16.232999801635742,-2.7820000648498535 9.932999610900879,-6.504000186920166 7.656000137329102,-8.359999656677246 C4.355999946594238,-11.050999641418457 -2.7149999141693115,-11.70199966430664 -6.122000217437744,-9.581000328063965z"></path></g></g><g style="display: block;" transform="matrix(1,0,0,1,256.2510070800781,409.1159973144531)" opacity="1"><g opacity="1" transform="matrix(1,0,0,1,21.82699966430664,74.11599731445312)"><path fill="rgb(170,103,71)" fill-opacity="1" d=" M6.349999904632568,73.86599731445312 C6.349999904632568,73.86599731445312 21.577999114990234,-22.072999954223633 18.600000381469727,-55.69300079345703 C18.28499984741211,-59.242000579833984 13.781999588012695,-73.86599731445312 13.781999588012695,-73.86599731445312 C13.781999588012695,-73.86599731445312 -21.57699966430664,-73.86599731445312 -21.57699966430664,-73.86599731445312 C-21.57699966430664,-73.86599731445312 -11.54699993133545,-60.840999603271484 -11.232000350952148,-57.92300033569336 C-7.710000038146973,-25.29800033569336 -3.4149999618530273,-32.83300018310547 -7.080999851226807,68.92400360107422 C-7.080999851226807,68.92400360107422 6.349999904632568,73.86599731445312 6.349999904632568,73.86599731445312z"></path></g></g><g style="display: block;" transform="matrix(1,0,0,1,266.59698486328125,547.3250122070312)" opacity="1"><g opacity="1" transform="matrix(1,0,0,1,27.427000045776367,13.949000358581543)"><path fill="rgb(0,0,0)" fill-opacity="1" d=" M-24.4689998626709,-13.699000358581543 C-24.4689998626709,-13.699000358581543 -27.177000045776367,6.293000221252441 -27.177000045776367,6.293000221252441 C-27.177000045776367,6.293000221252441 27.177000045776367,13.699000358581543 26.47100067138672,9.515999794006348 C25.437000274658203,3.3949999809265137 14.201000213623047,1.6339999437332153 9.04800033569336,-1.4509999752044678 C4.02400016784668,-4.459000110626221 -0.3490000069141388,-9.98900032043457 -8.397000312805176,-12 C-8.397000312805176,-12 -24.4689998626709,-13.699000358581543 -24.4689998626709,-13.699000358581543z"></path></g></g><g style="display: block;" transform="matrix(1,0,0,1,256.58099365234375,198.4400177001953)" opacity="1"><g opacity="1" transform="matrix(1,0,0,1,13.508000373840332,57.904998779296875)"><path fill="rgb(170,103,71)" fill-opacity="1" d=" M-13.258000373840332,-57.654998779296875 C-13.258000373840332,-57.654998779296875 10.96399974822998,-26.63800048828125 12.267000198364258,-5.909999847412109 C13.258000373840332,9.845999717712402 -8.366000175476074,57.654998779296875 -8.366000175476074,57.654998779296875"></path></g></g><g style="display: block;" transform="matrix(1,0,0,1,169.98500061035156,191.45101928710938)" opacity="1"><g opacity="1" transform="matrix(1,0,0,1,68.75199890136719,115.33100128173828)"><path fill="rgb(245,198,42)" fill-opacity="1" d=" M17.25,-108.49199676513672 C17.25,-108.49199676513672 -0.18400000035762787,-110.2750015258789 -0.18400000035762787,-110.2750015258789 C-0.18400000035762787,-110.2750015258789 2.36299991607666,-103.80500030517578 -3.424999952316284,-103.80500030517578 C-11.609999656677246,-103.80500030517578 -23.509000778198242,-112.66000366210938 -23.509000778198242,-112.66000366210938 C-23.509000778198242,-112.66000366210938 -47.18199920654297,-115.08100128173828 -47.18199920654297,-115.08100128173828 C-47.18199920654297,-115.08100128173828 -35.20600128173828,-34.527000427246094 -35.20600128173828,-34.527000427246094 C-35.20600128173828,-34.527000427246094 -33.222999572753906,-22.95599937438965 -33.1150016784668,-19.054000854492188 C-32.23699951171875,12.710000038146973 -68.50199890136719,88.49500274658203 -43.1510009765625,107.65399932861328 C-39.64500045776367,110.30400085449219 -7.510000228881836,115.08100128173828 20.691999435424805,113.66000366210938 C42.17300033569336,112.5770034790039 61.37300109863281,107.89900207519531 63.902000427246094,95.94499969482422 C68.50199890136719,74.1989974975586 26.479000091552734,13.347999572753906 24.95400047302246,-18.900999069213867 C24.51099967956543,-28.25 32.249000549316406,-46.347999572753906 31.854000091552734,-55.70000076293945 C31.274999618530273,-69.38200378417969 17.25,-108.49199676513672 17.25,-108.49199676513672z"></path></g><g opacity="1" transform="matrix(1,0,0,1,51.20800018310547,110.72899627685547)"><path stroke-linecap="round" stroke-linejoin="round" fill-opacity="0" stroke="rgb(253,131,90)" stroke-opacity="1" stroke-width="1.284" d=" M-0.8669999837875366,-8.991000175476074 C0.24699999392032623,-8.194999694824219 1.4880000352859497,-7.015999794006348 1.5379999876022339,-5.540999889373779 C1.6239999532699585,-2.999000072479248 -1.9049999713897705,-1.9329999685287476 -1.7029999494552612,0.4180000126361847 C-1.531000018119812,2.444999933242798 1.190000057220459,2.819000005722046 1.6430000066757202,5.331999778747559 C1.9049999713897705,6.788000106811523 1.2549999952316284,8.125 0.7020000219345093,8.991000175476074"></path></g><g opacity="1" transform="matrix(1,0,0,1,34.058998107910156,70.78399658203125)"><path fill="rgb(221,172,40)" fill-opacity="1" d=" M-9.640999794006348,-51.76599884033203 C-9.640999794006348,-51.76599884033203 9.640999794006348,29.138999938964844 9.640999794006348,29.138999938964844 C9.640999794006348,29.138999938964844 -2.183000087738037,51.76599884033203 -2.183000087738037,51.76599884033203 C-2.183000087738037,51.76599884033203 1.5770000219345093,25.493000030517578 1.5770000219345093,25.493000030517578 C1.5770000219345093,25.493000030517578 -9.640999794006348,-51.76599884033203 -9.640999794006348,-51.76599884033203z"></path></g><g opacity="1" transform="matrix(1,0,0,1,42.73699951171875,107.1969985961914)"><path stroke-linecap="round" stroke-linejoin="round" fill-opacity="0" stroke="rgb(253,131,90)" stroke-opacity="1" stroke-width="1.284" d=" M3.5299999713897705,-5.991000175476074 C3.6710000038146973,0.5789999961853027 3.114000082015991,5.826000213623047 0.996999979019165,6.414999961853027 C-0.1120000034570694,6.7230000495910645 -1.4119999408721924,5.689000129699707 -2.0190000534057617,4.763000011444092 C-3.6710000038146973,2.242000102996826 -2.1700000762939453,-2.509999990463257 2.2720000743865967,-6.7230000495910645"></path></g><g opacity="1" transform="matrix(1,0,0,1,86.5530014038086,106.19499969482422)"><path fill="rgb(221,172,40)" fill-opacity="1" d=" M7.245999813079834,-8.329999923706055 C7.245999813079834,-8.329999923706055 1.7450000047683716,-5.625999927520752 -9.28499984741211,-3.1570000648498535 C-9.28499984741211,-3.1570000648498535 2.109999895095825,8.329999923706055 9.28499984741211,2.9019999504089355 C9.28499984741211,2.9019999504089355 7.245999813079834,-8.329999923706055 7.245999813079834,-8.329999923706055z"></path></g><g opacity="1" transform="matrix(1,0,0,1,65.26599884033203,104.27100372314453)"><path stroke-linecap="round" stroke-linejoin="round" fill-opacity="0" stroke="rgb(253,131,90)" stroke-opacity="1" stroke-width="1.284" d=" M29.6299991607666,-6.947999954223633 C29.6299991607666,-6.947999954223633 2.1579999923706055,7.99399995803833 -29.6299991607666,-7.99399995803833"></path></g></g><g style="display: block;" transform="matrix(0.6203996539115906,-0.784285843372345,0.784285843372345,0.6203996539115906,235.59353637695312,183.1991424560547)" opacity="1"><g opacity="1" transform="matrix(1,0,0,1,13.37399959564209,20.77899932861328)"><path stroke-linecap="butt" stroke-linejoin="miter" fill-opacity="0" stroke-miterlimit="10" stroke="rgb(222,222,222)" stroke-opacity="1" stroke-width="2.936" d=" M6.033999919891357,9.189000129699707 C6.033999919891357,9.189000129699707 1.0570000410079956,10.041999816894531 1.0570000410079956,10.041999816894531 C-1.1670000553131104,10.42199993133545 -3.2990000247955322,8.913999557495117 -3.680000066757202,6.690000057220459 C-3.680000066757202,6.690000057220459 -5.6539998054504395,-4.831999778747559 -5.6539998054504395,-4.831999778747559 C-6.033999919891357,-7.057000160217285 -4.5269999504089355,-9.187999725341797 -2.302000045776367,-9.569000244140625 C-2.302000045776367,-9.569000244140625 2.6740000247955322,-10.42199993133545 2.6740000247955322,-10.42199993133545"></path></g><g opacity="1" transform="matrix(1,0,0,1,27.232999801635742,18.131999969482422)"><path fill="rgb(222,222,222)" fill-opacity="1" d=" M10.541999816894531,14.887999534606934 C10.541999816894531,14.887999534606934 -4.985000133514404,17.54800033569336 -4.985000133514404,17.54800033569336 C-6.926000118255615,17.881000518798828 -8.78600025177002,16.565000534057617 -9.118000030517578,14.62399959564209 C-9.118000030517578,14.62399959564209 -13.465999603271484,-10.756999969482422 -13.465999603271484,-10.756999969482422 C-13.79800033569336,-12.696999549865723 -12.482999801635742,-14.557000160217285 -10.541999816894531,-14.888999938964844 C-10.541999816894531,-14.888999938964844 4.985000133514404,-17.54800033569336 4.985000133514404,-17.54800033569336 C6.926000118255615,-17.881000518798828 8.78600025177002,-16.56599998474121 9.118000030517578,-14.625 C9.118000030517578,-14.625 13.465999603271484,10.755000114440918 13.465999603271484,10.755000114440918 C13.79800033569336,12.696000099182129 12.482999801635742,14.555999755859375 10.541999816894531,14.887999534606934z"></path></g><g opacity="1" transform="matrix(1,0,0,1,24.891000747680664,4.863999843597412)"><path fill="rgb(0,0,0)" fill-opacity="1" d=" M8.664999961853027,-1.4850000143051147 C8.79699993133545,-0.7120000123977661 5.026000022888184,0.5809999704360962 0.2409999966621399,1.399999976158142 C-4.545000076293945,2.2200000286102295 -8.531000137329102,2.256999969482422 -8.663999557495117,1.4830000400543213 C-8.795999526977539,0.7099999785423279 -5.025000095367432,-0.5809999704360962 -0.23999999463558197,-1.399999976158142 C4.545000076293945,-2.2200000286102295 8.532999992370605,-2.257999897003174 8.664999961853027,-1.4850000143051147z"></path></g></g><g style="display: block;" transform="matrix(0.6203996539115906,-0.784285843372345,0.784285843372345,0.6203996539115906,170.91323852539062,206.4296875)" opacity="1"><g opacity="1" transform="matrix(1,0,0,1,42.731998443603516,55.09299850463867)"><path fill="rgb(170,103,71)" fill-opacity="1" d=" M27.16450309753418,1.0358092784881592 C27.16450309753418,1.0358092784881592 26.613502502441406,-6.6781907081604 20.303503036499023,-2.769190788269043 C14.141502380371094,1.048809289932251 8.926502227783203,-2.01719069480896 12.733502388000488,8.92880916595459 C12.733502388000488,8.92880916595459 -27.657400131225586,28.856060028076172 -31.757400512695312,24.614059448242188 C-34.2494010925293,22.036060333251953 -16.996000289916992,-16.905000686645508 -16.39900016784668,-29.628000259399414 C-16.062000274658203,-36.82400131225586 -13.291999816894531,-54.84299850463867 -31.131999969482422,-54.391998291015625 C-36.63199996948242,-54.25199890136719 -39.08463668823242,-44.17881774902344 -42.07356262207031,-31.65640640258789 C-45.55703353881836,-17.145206451416016 -58.645320892333984,37.13136291503906 -40.539398193359375,47.210060119628906 C-28.140262603759766,54.0633430480957 16.167503356933594,17.21280860900879 16.167503356933594,17.21280860900879 C16.167503356933594,17.21280860900879 29.319501876831055,16.276809692382812 30.444501876831055,11.782809257507324"></path></g></g><g style="display: block;" transform="matrix(1,0,0,1,620.837158203125,522.1060180664062)" opacity="1"><g opacity="1" transform="matrix(1,0,0,1,44.165000915527344,16.552000045776367)"><path fill="rgb(210,150,118)" fill-opacity="1" d=" M-5.650000095367432,16.302000045776367 C-5.650000095367432,16.302000045776367 -11.541000366210938,-10.765999794006348 -11.541000366210938,-10.765999794006348 C-11.541000366210938,-10.765999794006348 4.883999824523926,-16.302000045776367 4.883999824523926,-16.302000045776367 C4.883999824523926,-16.302000045776367 11.541000366210938,12.560999870300293 11.541000366210938,12.560999870300293 C11.541000366210938,12.560999870300293 -5.650000095367432,16.302000045776367 -5.650000095367432,16.302000045776367z"></path></g><g opacity="1" transform="matrix(1,0,0,1,45.78099822998047,25.533000946044922)"><path fill="rgb(245,198,42)" fill-opacity="1" d=" M-11.940999984741211,-5.836999893188477 C-11.940999984741211,-5.836999893188477 8.065999984741211,-10.190999984741211 8.065999984741211,-10.190999984741211 C8.065999984741211,-10.190999984741211 11.940999984741211,6.256999969482422 11.940999984741211,6.256999969482422 C11.940999984741211,6.256999969482422 -7.947999954223633,10.190999984741211 -7.947999954223633,10.190999984741211 C-7.947999954223633,10.190999984741211 -11.940999984741211,-5.836999893188477 -11.940999984741211,-5.836999893188477z"></path></g><g opacity="1" transform="matrix(1,0,0,1,31.288999557495117,42.27000045776367)"><path fill="rgb(0,0,0)" fill-opacity="1" d=" M28.4060001373291,-10.755999565124512 C28.4060001373291,-10.755999565124512 31.038999557495117,7.956999778747559 31.038999557495117,7.956999778747559 C31.038999557495117,7.956999778747559 -31.038999557495117,12.163999557495117 -31.027000427246094,7.478000164031982 C-31.009000778198242,0.6209999918937683 -14.993000030517578,-6.296999931335449 -8.741000175476074,-8.513999938964844 C1.5579999685287476,-12.163999557495117 28.4060001373291,-10.755999565124512 28.4060001373291,-10.755999565124512z"></path></g></g><g style="display: block;" transform="matrix(1,0,0,1,721.0709838867188,537.2839965820312)" opacity="1"><g opacity="1" transform="matrix(1,0,0,1,18.66900062561035,13.744999885559082)"><path fill="rgb(210,150,118)" fill-opacity="1" d=" M-8.031999588012695,13.265999794006348 C-8.031999588012695,13.265999794006348 -7.697999954223633,-13.494999885559082 -7.697999954223633,-13.494999885559082 C-7.697999954223633,-13.494999885559082 6.135000228881836,-12.234999656677246 6.135000228881836,-12.234999656677246 C6.135000228881836,-12.234999656677246 8.031999588012695,13.494999885559082 8.031999588012695,13.494999885559082 C8.031999588012695,13.494999885559082 -8.031999588012695,13.265999794006348 -8.031999588012695,13.265999794006348z"></path></g><g opacity="1" transform="matrix(1,0,0,1,18.302000045776367,23.332000732421875)"><path fill="rgb(245,198,42)" fill-opacity="1" d=" M-8.545000076293945,-8.315999984741211 C-8.545000076293945,-8.315999984741211 8.946000099182129,-7.297999858856201 8.946000099182129,-7.297999858856201 C8.946000099182129,-7.297999858856201 9.687999725341797,6.150000095367432 9.687999725341797,6.150000095367432 C9.687999725341797,6.150000095367432 -9.687999725341797,8.315999984741211 -9.687999725341797,8.315999984741211 C-9.687999725341797,8.315999984741211 -8.545000076293945,-8.315999984741211 -8.545000076293945,-8.315999984741211z"></path></g><g opacity="1" transform="matrix(1,0,0,1,17.39299964904785,32.54800033569336)"><path fill="rgb(0,0,0)" fill-opacity="1" d=" M6.466000080108643,-10.119000434875488 C10.852999687194824,-7.388000011444092 17.143999099731445,2.38100004196167 14.598999977111816,6.14900016784668 C10.404000282287598,12.359000205993652 -14.086999893188477,9.392000198364258 -15.32800006866455,4.38700008392334 C-17.143999099731445,-2.937999963760376 -10.491000175476074,-6.869999885559082 -8.086000442504883,-8.829999923706055 C-4.60099983215332,-11.670999526977539 2.868000030517578,-12.359000205993652 6.466000080108643,-10.119000434875488z"></path></g></g><g style="display: block;" transform="matrix(1,0,0,1,609.1929931640625,290.7770080566406)" opacity="1"><g opacity="1" transform="matrix(1,0,0,1,78.1729965209961,129.0570068359375)"><path fill="rgb(57,71,124)" fill-opacity="1" d=" M-43.91020584106445,-109.5553970336914 C-52.210205078125,-89.01139831542969 -77.15410614013672,-34.88466262817383 -77.16810607910156,9.426339149475098 C-77.17810821533203,38.09634017944336 -57.301265716552734,97.43566131591797 -53.66426467895508,102.6226577758789 C-46.769264221191406,112.45465850830078 -10.71826457977295,110.5026626586914 -5.628264427185059,102.6226577758789 C-0.3102644681930542,94.39166259765625 -24.47513198852539,5.497206687927246 -24.47513198852539,5.497206687927246 C-24.47513198852539,5.497206687927246 1.317793369293213,-79.9513931274414 1.317793369293213,-79.9513931274414 C1.317793369293213,-79.9513931274414 15.306039810180664,117.3550033569336 21.95404052734375,120.19000244140625 C39.479042053222656,127.66400146484375 64.11599731445312,128.80799865722656 71.22200012207031,118.74099731445312 C77.92400360107422,109.24800109863281 38.26822280883789,-125.81773376464844 38.26822280883789,-125.81773376464844 C38.26822280883789,-125.81773376464844 -33.81120681762695,-128.86740112304688 -33.81120681762695,-128.86740112304688 C-33.81120681762695,-128.86740112304688 -39.17220687866211,-121.28439331054688 -43.91020584106445,-109.5553970336914z"></path></g></g><g style="display: block;" transform="matrix(0.9999892711639404,0.004625475034117699,-0.004625475034117699,0.9999892711639404,668.22265625,140.21762084960938)" opacity="1"><g opacity="1" transform="matrix(1,0,0,1,4.065999984741211,8.269000053405762)"><path fill="rgb(185,133,106)" fill-opacity="1" d=" M3.815999984741211,-8.019000053405762 C3.815999984741211,-8.019000053405762 -3.815999984741211,4.818999767303467 -3.815999984741211,4.818999767303467 C-3.815999984741211,4.818999767303467 3.6530001163482666,8.019000053405762 3.6530001163482666,8.019000053405762"></path></g></g><g style="display: block;" transform="matrix(0.9999892711639404,0.004625475034117699,-0.004625475034117699,0.9999892711639404,673.134033203125,117.43509674072266)" opacity="1"><g opacity="1" transform="matrix(1,0,0,1,26.809999465942383,37.56100082397461)"><path fill="rgb(210,150,118)" fill-opacity="1" d=" M7.177999973297119,29.59000015258789 C7.177999973297119,29.59000015258789 5.1529998779296875,18.91699981689453 7.5970001220703125,7.370999813079834 C7.5970001220703125,7.370999813079834 22.62700080871582,8.696999549865723 24.5939998626709,-8.680999755859375 C26.559999465942383,-26.059999465942383 14.536999702453613,-34.33700180053711 12.222000122070312,-34.362998962402344 C9.907999992370605,-34.388999938964844 -10.901000022888184,-37.31100082397461 -16.378999710083008,-30.158000946044922 C-21.72800064086914,-23.17300033569336 -26.559999465942383,-12.322999954223633 -25.488000869750977,3.0380001068115234 C-25.305999755859375,5.636000156402588 -25.823999404907227,14.052000045776367 -21.16699981689453,14.208999633789062 C-19.264999389648438,14.27299976348877 -17.13800048828125,14.369000434875488 -14.98900032043457,14.39900016784668 C-14.98900032043457,14.39900016784668 -14.744999885559082,28.219999313354492 -14.744999885559082,28.219999313354492 C-14.744999885559082,28.219999313354492 -19.834999084472656,37.31100082397461 -19.834999084472656,37.31100082397461 C-19.834999084472656,37.31100082397461 7.4070000648498535,35.823001861572266 7.4070000648498535,35.823001861572266 C7.4070000648498535,35.823001861572266 7.177999973297119,29.59000015258789 7.177999973297119,29.59000015258789z"></path></g><g opacity="1" transform="matrix(1,0,0,1,18.43199920654297,53.88199996948242)"><path fill="rgb(185,133,106)" fill-opacity="1" d=" M-6.629000186920166,-1.9040000438690186 C-6.629000186920166,-1.9040000438690186 1.0379999876022339,-2.181999921798706 6.629000186920166,-6.196000099182129 C6.629000186920166,-6.196000099182129 -0.004000000189989805,6.084000110626221 -6.176000118255615,6.196000099182129 C-6.176000118255615,6.196000099182129 -6.629000186920166,-1.9040000438690186 -6.629000186920166,-1.9040000438690186z"></path></g></g><g style="display: block;" transform="matrix(0.9999892711639404,0.004625475034117699,-0.004625475034117699,0.9999892711639404,680.4508056640625,105.18681335449219)" opacity="1"><g opacity="1" transform="matrix(1,0,0,1,27.44099998474121,34.00299835205078)"><path fill="rgb(0,0,0)" fill-opacity="1" d=" M25.677000045776367,7.21999979019165 C26.77199935913086,5.997000217437744 26.666000366210938,4.118000030517578 25.444000244140625,3.0239999294281006 C25.052000045776367,2.6730000972747803 24.591999053955078,2.4590001106262207 24.113000869750977,2.3519999980926514 C24.113000869750977,2.3399999141693115 24.113000869750977,2.328000068664551 24.113000869750977,2.315999984741211 C25.965999603271484,1.3860000371932983 27.19099998474121,-0.578000009059906 27.069000244140625,-2.7809998989105225 C26.913000106811523,-5.5920000076293945 24.621999740600586,-7.7729997634887695 21.85700035095215,-7.8460001945495605 C21.82900047302246,-7.913000106811523 21.801000595092773,-7.979000091552734 21.77199935913086,-8.04699993133545 C22.097999572753906,-8.210000038146973 22.402000427246094,-8.430999755859375 22.65999984741211,-8.718999862670898 C23.753999710083008,-9.942000389099121 23.650999069213867,-11.821000099182129 22.42799949645996,-12.916000366210938 C21.562000274658203,-13.6899995803833 20.371999740600586,-13.85099983215332 19.360000610351562,-13.45300006866455 C19.357999801635742,-13.479000091552734 19.360000610351562,-13.505000114440918 19.357999801635742,-13.531000137329102 C19.295000076293945,-14.680999755859375 19.052000045776367,-15.729999542236328 18.695999145507812,-16.586000442504883 C19.023000717163086,-17.33300018310547 19.18899917602539,-18.163999557495117 19.141000747680664,-19.033000946044922 C18.976999282836914,-21.993999481201172 16.444000244140625,-24.260000228881836 13.482999801635742,-24.09600067138672 C13.178999900817871,-24.079999923706055 12.885000228881836,-24.033000946044922 12.597000122070312,-23.968000411987305 C11.86299991607666,-24.79599952697754 10.574999809265137,-25.54599952697754 9,-25.996999740600586 C9.234999656677246,-27.01799964904785 8.935999870300293,-28.131999969482422 8.100000381469727,-28.8799991607666 C6.876999855041504,-29.974000930786133 4.998000144958496,-29.868999481201172 3.9040000438690186,-28.645999908447266 C3.8519999980926514,-28.589000701904297 3.815999984741211,-28.52400016784668 3.7690000534057617,-28.46299934387207 C2.736999988555908,-29.91900062561035 1.00600004196167,-30.832000732421875 -0.9079999923706055,-30.72599983215332 C-2.5239999294281006,-30.63599967956543 -3.928999900817871,-29.836999893188477 -4.848999977111816,-28.650999069213867 C-5.059999942779541,-31.51799964904785 -6.359000205993652,-33.75199890136719 -7.806000232696533,-33.672000885009766 C-9.133000373840332,-33.597999572753906 -10.119999885559082,-31.60700035095215 -10.194999694824219,-29.065000534057617 C-11.218000411987305,-30.577999114990234 -12.982000350952148,-31.53499984741211 -14.939000129699707,-31.427000045776367 C-17.899999618530273,-31.26300048828125 -20.167999267578125,-28.729000091552734 -20.003999710083008,-25.76799964904785 C-19.983999252319336,-25.40999984741211 -19.927000045776367,-25.065000534057617 -19.841999053955078,-24.731000900268555 C-22.64699935913086,-23.827999114990234 -24.68400001525879,-22.55699920654297 -25.284000396728516,-20.909000396728516 C-27.19099998474121,-15.678999900817871 -22.613000869750977,-16.190000534057617 -11.508999824523926,-6.059999942779541 C-9.050000190734863,-3.815999984741211 -8.98900032043457,4.0970001220703125 -7.758999824523926,4.0289998054504395 C-6.5289998054504395,3.9609999656677246 -1.5099999904632568,-1.524999976158142 0.23600000143051147,0.8100000023841858 C2.2829999923706055,3.5480000972747803 -0.9539999961853027,8.505999565124512 -5.900000095367432,9.58899974822998 C-6.959000110626221,9.821000099182129 -7.005000114440918,24.947999954223633 -0.9190000295639038,28.493000030517578 C-0.9179999828338623,28.503999710083008 -0.9190000295639038,28.513999938964844 -0.9190000295639038,28.52400016784668 C-0.7549999952316284,31.485000610351562 1.7790000438690186,33.75299835205078 4.739999771118164,33.5890007019043 C7.013999938964844,33.4630012512207 8.875,31.93600082397461 9.543000221252441,29.89299964904785 C10.692999839782715,30.413999557495117 12.090999603271484,30.17099952697754 12.97700023651123,29.18000030517578 C13.711999893188477,28.358999252319336 13.894000053405762,27.2450008392334 13.571999549865723,26.268999099731445 C16.118000030517578,26.709999084472656 18.308000564575195,26.125999450683594 18.63800048828125,24.823999404907227 C18.864999771118164,23.929000854492188 18.159000396728516,22.910999298095703 16.902000427246094,22.0939998626709 C17.16200065612793,22.118000030517578 17.424999237060547,22.1299991607666 17.694000244140625,22.114999771118164 C20.655000686645508,21.951000213623047 22.92300033569336,19.41900062561035 22.759000778198242,16.45800018310547 C22.71500015258789,15.659000396728516 22.493000030517578,14.913000106811523 22.142000198364258,14.25 C22.173999786376953,14.1850004196167 22.207000732421875,14.121999740600586 22.238000869750977,14.057000160217285 C24.774999618530273,12.581999778747559 26.238000869750977,10.369000434875488 25.506000518798828,9.092000007629395 C25.23900032043457,8.626999855041504 24.711999893188477,8.357000350952148 24.031999588012695,8.262999534606934 C24.038999557495117,8.222000122070312 24.04800033569336,8.182000160217285 24.05299949645996,8.140999794006348 C24.659000396728516,8.019000053405762 25.232999801635742,7.716000080108643 25.677000045776367,7.21999979019165z"></path></g><g opacity="1" transform="matrix(1,0,0,1,40.83300018310547,9.027000427246094)"><path stroke-linecap="round" stroke-linejoin="round" fill-opacity="0" stroke="rgb(0,0,0)" stroke-opacity="1" stroke-width="0.851" d=" M-4.193999767303467,5.394000053405762 C-0.800000011920929,4.519000053405762 1.2790000438690186,1.6100000143051147 0.9480000138282776,-1.0609999895095825 C0.6790000200271606,-3.2260000705718994 -1.225000023841858,-5.394000053405762 -1.968000054359436,-5.118000030517578 C-2.678999900817871,-4.854000091552734 -2.7980000972747803,-2.1489999294281006 -1.6740000247955322,-1.3070000410079956 C-0.574999988079071,-0.4830000102519989 1.9429999589920044,-1.2640000581741333 4.193999767303467,-3.7880001068115234"></path></g></g><g style="display: block;" transform="matrix(0.9999997019767761,0.000733865424990654,-0.000733865424990654,0.9999997019767761,648.1087646484375,181.60711669921875)" opacity="1"><g opacity="1" transform="matrix(1,0,0,1,41.762001037597656,61.24300003051758)"><path fill="rgb(245,198,42)" fill-opacity="1" d=" M-29.204999923706055,-52.44200134277344 C-31.374000549316406,-49.9630012512207 -24.66200065612793,-7.796000003814697 -26.354999542236328,7.414000034332275 C-27.691999435424805,19.424999237060547 -41.512001037597656,50.847999572753906 -37.027000427246094,53.90599822998047 C-32.055999755859375,57.29399871826172 32.65299987792969,60.99300003051758 37.7760009765625,55.86899948120117 C41.512001037597656,52.132999420166016 36.41699981689453,20.952999114990234 36.35100173950195,8.83899974822998 C36.26300048828125,-7.547999858856201 37.38100051879883,-55.08599853515625 33.547000885009766,-57.5260009765625 C30.81100082397461,-59.266998291015625 26.70400047302246,-58.98699951171875 17.823999404907227,-59.56700134277344 C13.95300006866455,-59.82099914550781 8.864999771118164,-52.44200134277344 -2.127000093460083,-52.44200134277344 C-10.640000343322754,-52.44200134277344 -1.8339999914169312,-59.04399871826172 -4.978000164031982,-59.56700134277344 C-13.529000282287598,-60.99300003051758 -26.10300064086914,-55.987998962402344 -29.204999923706055,-52.44200134277344z"></path></g></g><g style="display: block;" transform="matrix(0.9992341995239258,-0.03912770748138428,0.03912770748138428,0.9992341995239258,717.134765625,297.1777648925781)" opacity="1"><g opacity="1" transform="matrix(1,0,0,1,9.270999908447266,14.821999549865723)"><path fill="rgb(210,150,118)" fill-opacity="1" d=" M9.020999908447266,-9.020999908447266 C9.020999908447266,-9.020999908447266 4.330999851226807,2.5239999294281006 2.0820000171661377,6.244999885559082 C0.7879999876022339,8.38599967956543 -4.85699987411499,14.571999549865723 -4.85699987411499,14.571999549865723 C-4.85699987411499,14.571999549865723 -9.020999908447266,9.020999908447266 -9.020999908447266,3.4690001010894775 C-9.020999908447266,-0.6940000057220459 -8.925999641418457,-4.730999946594238 -7.631999969482422,-6.244999885559082 C-5.098999977111816,-9.211000442504883 4.85699987411499,-14.571999549865723 4.85699987411499,-14.571999549865723 C4.85699987411499,-14.571999549865723 9.020999908447266,-9.020999908447266 9.020999908447266,-9.020999908447266z"></path></g></g><g style="display: block;" transform="matrix(0.9992341995239258,-0.03912770748138428,0.03912770748138428,0.9992341995239258,708.7857666015625,183.27822875976562)" opacity="1"><g opacity="1" transform="matrix(1,0,0,1,29.757999420166016,68.66000366210938)"><path fill="rgb(245,198,42)" fill-opacity="1" d=" M-17.29199981689453,-66.66400146484375 C-7.327000141143799,-62.91899871826172 24.03700065612793,-23.90999984741211 26.88800048828125,-3.9570000171661377 C29.507999420166016,14.383000373840332 -4.15500020980835,57.3380012512207 -4.465000152587891,64.4489974975586 C-4.638000011444092,68.41000366210938 -18.1200008392334,50.72800064086914 -15.866999626159668,47.347999572753906 C-10.166000366210938,38.797000885009766 5.510000228881836,10.293999671936035 5.510000228881836,-2.5320000648498535 C5.510000228881836,-16.507999420166016 -29.507999420166016,-46.11000061035156 -29.507999420166016,-46.11000061035156 C-29.507999420166016,-46.11000061035156 -21.937999725341797,-68.41000366210938 -17.29199981689453,-66.66400146484375z"></path></g></g><g style="display: block;" transform="matrix(0.9999966025352478,-0.002615191973745823,0.002615191973745823,0.9999966025352478,530.1019897460938,183.14828491210938)" opacity="1"><g opacity="1" transform="matrix(1,0,0,1,13.319999694824219,12.8100004196167)"><path fill="rgb(210,150,118)" fill-opacity="1" d=" M13.069999694824219,0.9449999928474426 C10.494999885559082,-0.7799999713897705 -10.319000244140625,-12.5600004196167 -11.180999755859375,-11.461999893188477 C-13.069999694824219,-9.057000160217285 0.05999999865889549,-0.47200000286102295 0.05999999865889549,-0.47200000286102295 C0.05999999865889549,-0.47200000286102295 -3.6670000553131104,7.896999835968018 -2.3510000705718994,10.331999778747559 C-1.2760000228881836,12.322999954223633 7.703999996185303,12.5600004196167 10.038999557495117,11.90999984741211"></path></g></g><g style="display: block;" transform="matrix(0.9998224973678589,0.018839029595255852,-0.018839029595255852,0.9998224973678589,551.3121948242188,186.6119384765625)" opacity="1"><g opacity="1" transform="matrix(1,0,0,1,56.41899871826172,29.410999298095703)"><path fill="rgb(245,198,42)" fill-opacity="1" d=" M54.69664001464844,-29.378379821777344 C54.69664001464844,-29.378379821777344 30.419296264648438,-5.399320602416992 9.523810386657715,0.1454247683286667 C-12.23693561553955,5.929174900054932 -48.78990936279297,-24.460735321044922 -52.19390869140625,-21.12873649597168 C-55.955909729003906,-17.4487361907959 -56.43490982055664,-3.1967360973358154 -52.19390869140625,-0.08073604106903076 C-49.79890823364258,1.679263949394226 -1.3981375694274902,28.913074493408203 11.922094345092773,24.71612548828125 C34.740867614746094,17.523683547973633 56.31492233276367,4.660361289978027 56.31492233276367,4.660361289978027 C56.31492233276367,4.660361289978027 54.69664001464844,-29.378379821777344 54.69664001464844,-29.378379821777344z"></path></g></g><g style="display: block;" transform="matrix(1,0,0,1,266.1860046386719,663.7579956054688)" opacity="1"><g opacity="1" transform="matrix(1,0,0,1,16.851999282836914,28.121999740600586)"><path fill="rgb(0,0,0)" fill-opacity="1" d=" M6.26200008392334,-9.798999786376953 C10.51099967956543,-7.1529998779296875 16.601999282836914,2.303999900817871 14.13700008392334,5.953999996185303 C10.074999809265137,11.968000411987305 -13.640999794006348,9.095000267028809 -14.843000411987305,4.247000217437744 C-16.601999282836914,-2.8459999561309814 -10.157999992370605,-6.6529998779296875 -7.828999996185303,-8.550999641418457 C-4.454999923706055,-11.302000045776367 2.7780001163482666,-11.968000411987305 6.26200008392334,-9.798999786376953z"></path></g><g opacity="1" transform="matrix(1,0,0,1,17.67300033569336,11.701000213623047)"><path fill="rgb(247,183,145)" fill-opacity="1" d=" M5.250999927520752,11.45199966430664 C5.250999927520752,11.45199966430664 7.819988250732422,-10.861000061035156 7.819988250732422,-10.861000061035156 C7.819988250732422,-10.861000061035156 -3.8430116176605225,-11.45199966430664 -3.8430116176605225,-11.45199966430664 C-3.8430116176605225,-11.45199966430664 -8.145000457763672,9.73799991607666 -8.145000457763672,9.73799991607666 C-8.145000457763672,9.73799991607666 5.250999927520752,11.45199966430664 5.250999927520752,11.45199966430664z"></path></g><g opacity="1" transform="matrix(1,0,0,1,16.70199966430664,20.333999633789062)"><path fill="rgb(57,71,124)" fill-opacity="1" d=" M8.257828712463379,-7.059000015258789 C8.257828712463379,-7.059000015258789 -6.421170711517334,-8.28600025177002 -6.421170711517334,-8.28600025177002 C-6.421170711517334,-8.28600025177002 -8.906000137329102,2.628000020980835 -8.54699993133545,3.742000102996826 C-7.290999889373779,7.642000198364258 3.8940000534057617,8.28600025177002 7.309000015258789,6.020999908447266 C8.906000137329102,4.961999893188477 8.257828712463379,-7.059000015258789 8.257828712463379,-7.059000015258789z"></path></g></g><g style="display: block;" transform="matrix(1,0,0,1,341.29400634765625,660.0650024414062)" opacity="1"><g opacity="1" transform="matrix(1,0,0,1,10.85099983215332,12.699999809265137)"><path fill="rgb(247,183,145)" fill-opacity="1" d=" M7.394999980926514,12.449000358581543 C7.394999980926514,12.449000358581543 6.96165132522583,-10.83899974822998 6.96165132522583,-10.83899974822998 C6.96165132522583,-10.83899974822998 -7.519348621368408,-12.449000358581543 -7.519348621368408,-12.449000358581543 C-7.519348621368408,-12.449000358581543 -7.394999980926514,12.449000358581543 -7.394999980926514,12.449000358581543 C-7.394999980926514,12.449000358581543 7.394999980926514,12.449000358581543 7.394999980926514,12.449000358581543z"></path></g><g opacity="1" transform="matrix(1,0,0,1,11.005999565124512,20.60700035095215)"><path fill="rgb(57,71,124)" fill-opacity="1" d=" M8.468990325927734,-7.1020002365112305 C8.468990325927734,-7.1020002365112305 -8.74600887298584,-7.1020002365112305 -8.74600887298584,-7.1020002365112305 C-8.74600887298584,-7.1020002365112305 -8.729000091552734,7.1020002365112305 -8.729000091552734,7.1020002365112305 C-8.729000091552734,7.1020002365112305 8.312999725341797,6.7789998054504395 8.312999725341797,6.7789998054504395 C8.312999725341797,6.7789998054504395 8.468990325927734,-7.1020002365112305 8.468990325927734,-7.1020002365112305z"></path></g><g opacity="1" transform="matrix(1,0,0,1,26.363000869750977,33.72999954223633)"><path fill="rgb(0,0,0)" fill-opacity="1" d=" M-24.099000930786133,-8.581000328063965 C-24.099000930786133,-8.581000328063965 -26.113000869750977,7.177999973297119 -26.113000869750977,7.177999973297119 C-26.113000869750977,7.177999973297119 26.113000869750977,10.052000045776367 26.05299949645996,6.11299991607666 C25.96500015258789,0.3490000069141388 12.430000305175781,-5.296000003814697 7.151000022888184,-7.0920000076293945 C-1.5460000038146973,-10.050999641418457 -24.099000930786133,-8.581000328063965 -24.099000930786133,-8.581000328063965z"></path></g></g><g style="display: block;" transform="matrix(1,0,0,1,265.7380065917969,422.8069763183594)" opacity="1"><g opacity="1" transform="matrix(1,0,0,1,58.16899871826172,122.77300262451172)"><path fill="rgb(62,205,166)" fill-opacity="1" d=" M36.52463150024414,-98.83799743652344 C39.31962966918945,-61.49100112915039 57.11957931518555,104.13500213623047 51.03657913208008,112.80999755859375 C45.23957824707031,121.07599639892578 10.65457820892334,112.80999755859375 10.65457820892334,112.80999755859375 C10.65457820892334,112.80999755859375 1.7656300067901611,-62.3489990234375 1.7656300067901611,-62.3489990234375 C1.7656300067901611,-62.3489990234375 -10.171710968017578,116.80000305175781 -10.171710968017578,116.80000305175781 C-10.171710968017578,116.80000305175781 -43.90071105957031,122.52300262451172 -51.58871078491211,115.58100128173828 C-58.31871032714844,109.50299835205078 -28.988370895385742,-117.94200134277344 -28.988370895385742,-117.94200134277344 C-28.988370895385742,-117.94200134277344 35.877628326416016,-122.52300262451172 35.877628326416016,-122.52300262451172 C35.877628326416016,-122.52300262451172 35.685630798339844,-110.05899810791016 36.52463150024414,-98.83799743652344z"></path></g></g><g style="display: block;" transform="matrix(0.9999896883964539,-0.004538002889603376,0.004538002889603376,0.9999896883964539,271.64898681640625,305.8829345703125)" opacity="1"><g opacity="1" transform="matrix(1,0,0,1,42.119998931884766,54.731998443603516)"><path fill="rgb(247,183,145)" fill-opacity="1" d=" M-7.074999809265137,-43.611000061035156 C-7.074999809265137,-43.611000061035156 -1.7070000171661377,-40.64400100708008 -4.126999855041504,-25.628000259399414 C-6.546999931335449,-10.611000061035156 -14.225000381469727,16.990999221801758 -11.92300033569336,21.30699920654297 C-8.963000297546387,26.856000900268555 37.95500183105469,43.04399871826172 37.95500183105469,43.04399871826172 C37.95500183105469,43.04399871826172 35.25600051879883,54.48099899291992 35.25600051879883,54.48099899291992 C35.25600051879883,54.48099899291992 -24.440000534057617,42.43899917602539 -29.611000061035156,36.52399826049805 C-33.50699996948242,32.06700134277344 -37.95399856567383,14.29699993133545 -31.649999618530273,-21.763999938964844 C-31.649999618530273,-21.763999938964844 -27.44499969482422,-54.481998443603516 -7.074999809265137,-43.611000061035156z"></path></g><g opacity="1" transform="matrix(1,0,0,1,20.33099937438965,30.39299964904785)"><path fill="rgb(40,53,83)" fill-opacity="1" d=" M-12.291000366210938,26.549999237060547 C-20.08099937438965,22.78499984741211 -12.232999801635742,16.131999969482422 -9.86299991607666,2.575000047683716 C-9.86299991607666,2.575000047683716 -5.6570000648498535,-30.14299964904785 14.713000297546387,-19.27199935913086 C14.713000297546387,-19.27199935913086 20.08099937438965,-16.305999755859375 17.660999298095703,-1.2899999618530273 C16.451000213623047,6.2179999351501465 16.975000381469727,23.864999771118164 11.993000030517578,26.19099998474121 C5.927999973297119,29.02199935913086 -4.855999946594238,30.14299964904785 -12.291000366210938,26.549999237060547z"></path></g></g><g style="display: block;" transform="matrix(0.9999896883964539,-0.004538002889603376,0.004538002889603376,0.9999896883964539,307.310546875,232.3243408203125)" opacity="1"><g opacity="1" transform="matrix(1,0,0,1,27.00200080871582,49.6150016784668)"><path fill="rgb(247,183,145)" fill-opacity="1" d=" M17.45800018310547,8.272000312805176 C21.624000549316406,5.9730000495910645 24.04199981689453,-8.880999565124512 24.04199981689453,-8.880999565124512 C26.753000259399414,-33.9640007019043 8.333000183105469,-42.4640007019043 8.333000183105469,-42.4640007019043 C-15.539999961853027,-49.36399841308594 -22.475000381469727,-33.215999603271484 -22.475000381469727,-33.215999603271484 C-26.75200080871582,-17.125999450683594 -23.253000259399414,-6.284999847412109 -17.641000747680664,0.906000018119812 C-17.641000747680664,0.906000018119812 -9.508999824523926,20.63599967956543 -20.030000686645508,26.45199966430664 C-20.030000686645508,26.45199966430664 2.438999891281128,49.3650016784668 13.531000137329102,35.599998474121094 C13.531000137329102,35.599998474121094 1.5670000314712524,13.5649995803833 4.758999824523926,10.32699966430664 C7.017000198364258,8.036999702453613 14.642999649047852,9.826000213623047 17.45800018310547,8.272000312805176z"></path></g></g><g style="display: block;" transform="matrix(0.9999896883964539,-0.004538002889603376,0.004538002889603376,0.9999896883964539,293.3349914550781,215.93258666992188)" opacity="1"><g opacity="1" transform="matrix(1,0,0,1,33.74800109863281,37.53200149536133)"><path fill="rgb(124,73,48)" fill-opacity="1" d=" M23.09600067138672,-34.084999084472656 C26.92099952697754,-37.28300094604492 33.49800109863281,-19.2810001373291 27.93600082397461,-8.878999710083008 C26.194000244140625,-5.622000217437744 25.190000534057617,-5.059999942779541 22.732999801635742,-2.255000114440918 C21.033000946044922,-0.3149999976158142 22.481000900268555,3.7249999046325684 19.381000518798828,6.6519999504089355 C19.149999618530273,6.869999885559082 21.457000732421875,14.654999732971191 19.83799934387207,14.746999740600586 C16.600000381469727,14.928999900817871 16.708999633789062,10.050999641418457 16.325000762939453,10.071999549865723 C14.918999671936035,10.152000427246094 9.826000213623047,6.033999919891357 8.138999938964844,8.91100025177002 C6.1620001792907715,12.284000396728516 6.886000156402588,15.477999687194824 11.925999641418457,18.44099998474121 C13.16100025177002,19.167999267578125 7.295000076293945,36.77000045776367 -3.489000082015991,37.0260009765625 C-14.27400016784668,37.28300094604492 -29.309999465942383,25.77899932861328 -31.520000457763672,9.859000205993652 C-32.518001556396484,2.6619999408721924 -33.49800109863281,-13.45199966430664 -16.530000686645508,-22.121000289916992 C-2.7760000228881836,-29.148000717163086 7.614999771118164,-21.141000747680664 23.09600067138672,-34.084999084472656z"></path></g></g><g style="display: block;" transform="matrix(0.9999896883964539,-0.004538002889603376,0.004538002889603376,0.9999896883964539,287.30242919921875,300.6578369140625)" opacity="1"><g opacity="1" transform="matrix(1,0,0,1,37.74800109863281,75.43900299072266)"><path fill="rgb(57,71,124)" fill-opacity="1" d=" M-10.890000343322754,-68.66500091552734 C-10.890000343322754,-68.66500091552734 -25.261999130249023,-63.3849983215332 -27.429000854492188,-61.45100021362305 C-33.27899932861328,-56.22999954223633 -32.16600036621094,-22.86199951171875 -32.16600036621094,-4.48799991607666 C-32.16600036621094,4.576000213623047 -31.312999725341797,20.805999755859375 -31.868000030517578,28.020000457763672 C-31.868000030517578,28.020000457763672 -37.499000549316406,59.46099853515625 -25.44499969482422,63.37099838256836 C-9.177000045776367,68.64700317382812 14.190999984741211,75.18900299072266 37.49800109863281,46.887001037597656 C37.49800109863281,46.887001037597656 37.49800109863281,-68.66500091552734 37.49800109863281,-68.66500091552734 C37.49800109863281,-68.66500091552734 20.575000762939453,-74.97200012207031 14.493000030517578,-75.07499694824219 C7.7820000648498535,-75.18900299072266 -10.890000343322754,-68.66500091552734 -10.890000343322754,-68.66500091552734z"></path></g></g><g style="display: block;" transform="matrix(0.9999896883964539,-0.004538002889603376,0.004538002889603376,0.9999896883964539,348.60333251953125,305.7877197265625)" opacity="1"><g opacity="1" transform="matrix(1,0,0,1,25.458999633789062,79.35199737548828)"><path fill="rgb(247,183,145)" fill-opacity="1" d=" M-7.414999961853027,-70.6969985961914 C-7.414999961853027,-70.6969985961914 25.208999633789062,-17.655000686645508 25.208999633789062,-8.663999557495117 C25.208999633789062,-4.406000137329102 -6.692999839782715,40.334999084472656 -6.692999839782715,40.334999084472656 C-6.692999839782715,40.334999084472656 -14.47599983215332,56.93600082397461 -13.42199993133545,65.0999984741211 C-12.699999809265137,70.69599914550781 -19.739999771118164,68.38400268554688 -20.10099983215332,62.12099838256836 C-20.364999771118164,57.53900146484375 -19.88599967956543,53.191001892089844 -19.88599967956543,53.191001892089844 C-19.88599967956543,53.191001892089844 -23.93600082397461,57.49399948120117 -24.57200050354004,55.290000915527344 C-25.208999633789062,53.08599853515625 -13.690999984741211,35.676998138427734 -13.690999984741211,35.676998138427734 C-13.690999984741211,35.676998138427734 6.117000102996826,-3.063999891281128 7.425000190734863,-8.968000411987305 C8.331999778747559,-13.0649995803833 -10.970000267028809,-46.7869987487793 -10.970000267028809,-46.7869987487793"></path></g><g opacity="1" transform="matrix(1,0,0,1,23.320999145507812,27.413999557495117)"><path fill="rgb(61,80,132)" fill-opacity="1" d=" M-4.697999954223633,26.038999557495117 C-11.70300006866455,27.163999557495117 -16.636999130249023,-4.11299991607666 -17.834999084472656,-14.76200008392334 C-18.243999481201172,-18.400999069213867 -18.66699981689453,-25.30500030517578 -8.956000328063965,-26.415000915527344 C-2.4070000648498535,-27.163999557495117 18.666000366210938,3.8519999980926514 16.673999786376953,12.480999946594238 C15.1850004196167,18.929000854492188 1.8359999656677246,24.989999771118164 -4.697999954223633,26.038999557495117z"></path></g></g><g style="display: block;" transform="matrix(1,0,0,1,511.4210205078125,642.4819946289062)" opacity="1"><g opacity="1" transform="matrix(1,0,0,1,38.875999450683594,13.96399974822998)"><path fill="rgb(247,183,145)" fill-opacity="1" d=" M-8.145000457763672,13.71399974822998 C-8.145000457763672,13.71399974822998 -8.145000457763672,-11.937999725341797 -8.145000457763672,-11.937999725341797 C-8.145000457763672,-11.937999725341797 7.806000232696533,-13.71399974822998 7.806000232696533,-13.71399974822998 C7.806000232696533,-13.71399974822998 8.145000457763672,13.71399974822998 8.145000457763672,13.71399974822998 C8.145000457763672,13.71399974822998 -8.145000457763672,13.71399974822998 -8.145000457763672,13.71399974822998z"></path></g><g opacity="1" transform="matrix(1,0,0,1,38.70500183105469,22.673999786376953)"><path fill="rgb(122,217,233)" fill-opacity="1" d=" M-9.61400032043457,-7.822999954223633 C-9.61400032043457,-7.822999954223633 9.347000122070312,-7.822999954223633 9.347000122070312,-7.822999954223633 C9.347000122070312,-7.822999954223633 9.61400032043457,7.822999954223633 9.61400032043457,7.822999954223633 C9.61400032043457,7.822999954223633 -9.156000137329102,7.466000080108643 -9.156000137329102,7.466000080108643 C-9.156000137329102,7.466000080108643 -9.61400032043457,-7.822999954223633 -9.61400032043457,-7.822999954223633z"></path></g><g opacity="1" transform="matrix(1,0,0,1,25.400999069213867,37.12799835205078)"><path fill="rgb(0,0,0)" fill-opacity="1" d=" M23.211999893188477,-9.451000213623047 C23.211999893188477,-9.451000213623047 25.150999069213867,7.90500020980835 25.150999069213867,7.90500020980835 C25.150999069213867,7.90500020980835 -25.150999069213867,11.071000099182129 -25.093000411987305,6.732999801635742 C-25.007999420166016,0.3840000033378601 -11.970999717712402,-5.834000110626221 -6.886000156402588,-7.811999797821045 C1.4900000095367432,-11.071000099182129 23.211999893188477,-9.451000213623047 23.211999893188477,-9.451000213623047z"></path></g></g><g style="display: block;" transform="matrix(1,0,0,1,612.011962890625,646.5490112304688)" opacity="1"><g opacity="1" transform="matrix(1,0,0,1,16.851999282836914,34.24800109863281)"><path fill="rgb(0,0,0)" fill-opacity="1" d=" M6.26200008392334,-9.800000190734863 C10.51099967956543,-7.1539998054504395 16.60300064086914,2.305000066757202 14.137999534606934,5.953999996185303 C10.076000213623047,11.968999862670898 -13.640000343322754,9.095000267028809 -14.842000007629395,4.247000217437744 C-16.601999282836914,-2.8469998836517334 -10.157999992370605,-6.6529998779296875 -7.828999996185303,-8.550999641418457 C-4.453999996185303,-11.302000045776367 2.7780001163482666,-11.968999862670898 6.26200008392334,-9.800000190734863z"></path></g><g opacity="1" transform="matrix(1,0,0,1,13.496999740600586,12.86299991607666)"><path fill="rgb(247,183,145)" fill-opacity="1" d=" M-5.783999919891357,12.61299991607666 C-5.783999919891357,12.61299991607666 -8.972000122070312,-11.961000442504883 -8.972000122070312,-11.961000442504883 C-8.972000122070312,-11.961000442504883 3.874000072479248,-12.61299991607666 3.874000072479248,-12.61299991607666 C3.874000072479248,-12.61299991607666 8.972000122070312,10.72700023651123 8.972000122070312,10.72700023651123 C8.972000122070312,10.72700023651123 -5.783999919891357,12.61299991607666 -5.783999919891357,12.61299991607666z"></path></g><g opacity="1" transform="matrix(1,0,0,1,15.548999786376953,23.983999252319336)"><path fill="rgb(122,217,233)" fill-opacity="1" d=" M-10.210000038146973,-9.38700008392334 C-10.210000038146973,-9.38700008392334 5.958000183105469,-10.73799991607666 5.958000183105469,-10.73799991607666 C5.958000183105469,-10.73799991607666 10.210000038146973,4.251999855041504 8.98799991607666,6.695000171661377 C6.966000080108643,10.73900032043457 -6.874000072479248,9.95300006866455 -9.086000442504883,6.010000228881836 C-9.666999816894531,4.9730000495910645 -10.210000038146973,-9.38700008392334 -10.210000038146973,-9.38700008392334z"></path></g></g><g style="display: block;" transform="matrix(1,0,0,1,524.0469970703125,414.8890075683594)" opacity="1"><g opacity="1" transform="matrix(1,0,0,1,59.520999908447266,120.99800109863281)"><path fill="rgb(57,71,124)" fill-opacity="1" d=" M-50.83599853515625,24.84000015258789 C-59.270999908447266,69.86699676513672 -49.52299880981445,106.2300033569336 -49.52299880981445,106.2300033569336 C-44.209999084472656,113.80699920654297 -18.648000717163086,111.5 -10.218000411987305,110.51300048828125 C-8.666000366210938,110.33100128173828 -7.497000217437744,109.03500366210938 -7.46999979019165,107.47200012207031 C-7.267000198364258,95.80799865722656 -6.385000228881836,49.52399826049805 -4.889999866485596,32.715999603271484 C-2.4509999752044678,5.302000045776367 10.86299991607666,-71.12100219726562 10.86299991607666,-71.12100219726562 C10.86299991607666,-71.12100219726562 5.611999988555908,106.2300033569336 9.907999992370605,111.74500274658203 C16.917999267578125,120.74800109863281 47.058998107910156,118.0510025024414 55.527000427246094,110.40299987792969 C59.27199935913086,107.02100372314453 53.516998291015625,49.233001708984375 51.558998107910156,-6.665999889373779 C49.64099884033203,-61.40399932861328 54.145999908447266,-120.74800109863281 54.145999908447266,-120.74800109863281 C54.145999908447266,-120.74800109863281 -14.274999618530273,-118.81700134277344 -14.274999618530273,-118.81700134277344 C-14.274999618530273,-118.81700134277344 -48.78499984741211,13.892000198364258 -50.83599853515625,24.84000015258789z"></path></g></g><g style="display: block;" transform="matrix(0.9999247193336487,0.012271271087229252,-0.012271271087229252,0.9999247193336487,611.0670776367188,304.8946533203125)" opacity="1"><g opacity="1" transform="matrix(1,0,0,1,31.219999313354492,46.06399917602539)"><path fill="rgb(106,198,206)" fill-opacity="1" d=" M-29.76300048828125,45.81399917602539 C-30.969999313354492,37.731998443603516 -14.552000045776367,-0.38100001215934753 -14.552000045776367,-0.38100001215934753 C-14.552000045776367,-0.38100001215934753 -14.024999618530273,-40.20500183105469 -14.024999618530273,-40.20500183105469 C-14.024999618530273,-40.20500183105469 0.9359999895095825,-45.81399917602539 7.947999954223633,-34.12699890136719 C7.947999954223633,-34.12699890136719 30.97100067138672,13.17199993133545 -5.008999824523926,24.575000762939453"></path></g></g><g style="display: block;" transform="matrix(0.9999954700469971,0.00301452842541039,-0.00301452842541039,0.9999954700469971,542.6133422851562,355.1749572753906)" opacity="1"><g opacity="1" transform="matrix(1,0,0,1,16.722000122070312,9.538000106811523)"><path fill="rgb(247,183,145)" fill-opacity="1" d=" M16.472990036010742,-9.256924629211426 C16.472990036010742,-9.256924629211426 2.439410924911499,-9.28764533996582 -7.910292625427246,-1.0282487869262695 C-10.122342109680176,0.737656831741333 -16.471874237060547,7.587794303894043 -14.118108749389648,8.437098503112793 C-11.76434326171875,9.286264419555664 -7.008999824523926,3.7360000610351562 1.434000015258789,3.2219998836517334 C4.695000171661377,3.0239999294281006 14.482000350952148,2.5280001163482666 14.482000350952148,2.5280001163482666 C14.482000350952148,2.5280001163482666 16.472990036010742,-9.256924629211426 16.472990036010742,-9.256924629211426z"></path></g></g><g style="display: block;" transform="matrix(0.9999958872795105,0.0028643764089792967,-0.0028643764089792967,0.9999958872795105,552.603759765625,304.67327880859375)" opacity="1"><g opacity="1" transform="matrix(1,0,0,1,37.849998474121094,38.724998474121094)"><path fill="rgb(106,198,206)" fill-opacity="1" d=" M-22.503999710083008,-30.40399932861328 C-31.69499969482422,-21.152000427246094 -37.60100173950195,24.39299964904785 -34.632999420166016,30.40399932861328 C-32.32600021362305,35.07600021362305 -34.2400016784668,38.474998474121094 -14.163999557495117,34.34199905395508 C-14.163999557495117,34.34199905395508 37.599998474121094,23.121999740600586 37.599998474121094,23.121999740600586 C37.599998474121094,23.121999740600586 7.486999988555908,7.769000053405762 7.486999988555908,7.769000053405762 C7.486999988555908,7.769000053405762 -9.63700008392334,9.541000366210938 -9.63700008392334,9.541000366210938 C-9.63700008392334,9.541000366210938 6.925000190734863,-38.474998474121094 -1.7480000257492065,-38.474998474121094 C-11.868000030517578,-38.474998474121094 -17.854000091552734,-35.084999084472656 -22.503999710083008,-30.40399932861328z"></path></g></g><g style="display: block;" transform="matrix(0.9992057085037231,0.039849355816841125,-0.039849355816841125,0.9992057085037231,583.0536499023438,255.156005859375)" opacity="1"><g opacity="1" transform="matrix(1,0,0,1,3.2679998874664307,6.447000026702881)"><path fill="rgb(253,131,90)" fill-opacity="1" d=" M3.0179998874664307,-6.197000026702881 C3.0179998874664307,-6.197000026702881 -3.0179998874664307,4.211999893188477 -3.0179998874664307,4.211999893188477 C-3.0179998874664307,4.211999893188477 1.7589999437332153,6.197000026702881 1.7589999437332153,6.197000026702881"></path></g></g><g style="display: block;" transform="matrix(0.9992057085037231,0.039849355816841125,-0.039849355816841125,0.9992057085037231,589.2888793945312,228.04693603515625)" opacity="1"><g opacity="1" transform="matrix(1,0,0,1,27.020999908447266,42.577999114990234)"><path fill="rgb(247,183,145)" fill-opacity="1" d=" M-22.840999603271484,11.432000160217285 C-26.739999771118164,8.381999969482422 -26.77199935913086,-7.2769999504089355 -26.77199935913086,-7.2769999504089355 C-25.413999557495117,-33.49399948120117 -5.0879998207092285,-39.18299865722656 -5.0879998207092285,-39.18299865722656 C20.57699966430664,-42.327999114990234 25.03499984741211,-24.5939998626709 25.03499984741211,-24.5939998626709 C26.77199935913086,-7.357999801635742 21.38599967956543,3.2019999027252197 14.432999610900879,9.663000106811523 C14.432999610900879,9.663000106811523 6.008999824523926,26.82200050354004 15.857000350952148,34.534000396728516 C15.857000350952148,34.534000396728516 5.796999931335449,42.327999114990234 -10.388999938964844,34.56100082397461 C-10.388999938964844,34.56100082397461 -7.389999866485596,19.493999481201172 -10.133999824523926,15.640000343322754 C-12.074999809265137,12.913999557495117 -20.204999923706055,13.494000434875488 -22.840999603271484,11.432000160217285z"></path></g></g><g style="display: block;" transform="matrix(0.9992057085037231,0.039849355816841125,-0.039849355816841125,0.9992057085037231,598.772216796875,227.57546997070312)" opacity="1"><g opacity="1" transform="matrix(1,0,0,1,27.47100067138672,30.270999908447266)"><path fill="rgb(240,121,31)" fill-opacity="1" d=" M-27.22100067138672,-19.225000381469727 C-27.22100067138672,-19.225000381469727 -22.945999145507812,-2.1080000400543213 -21.10300064086914,-1.4529999494552612 C-19.26099967956543,-0.796999990940094 -13.36400032043457,-10.564000129699707 -11.137999534606934,-3.677000045776367 C-8.949000358581543,3.0969998836517334 -16.878000259399414,5.642000198364258 -17.917999267578125,8.213000297546387 C-20.64699935913086,14.963000297546387 -2.130000114440918,30.003999710083008 1.3960000276565552,30.011999130249023 C4.921999931335449,30.020999908447266 14.593000411987305,25.158000946044922 19.933000564575195,10.03499984741211 C22.131000518798828,3.808000087738037 27.22100067138672,-7.920000076293945 18.410999298095703,-19.788999557495117 C14.397000312805176,-25.19700050354004 9.135000228881836,-30.020999908447266 -7.205999851226807,-29.93600082397461 C-21.211999893188477,-29.863000869750977 -27.22100067138672,-19.225000381469727 -27.22100067138672,-19.225000381469727z"></path></g></g><g style="display: block;" transform="matrix(0.9958766102790833,0.09071829169988632,-0.09071829169988632,0.9958766102790833,637.076904296875,211.70303344726562)" opacity="1"><g opacity="1" transform="matrix(1,0,0,1,30.615999221801758,24.816999435424805)"><path fill="rgb(239,121,30)" fill-opacity="1" d=" M-30.365999221801758,-3.3359999656677246 C-30.365999221801758,-3.3359999656677246 -27.954999923706055,-21.267000198364258 -16.356000900268555,-20.78499984741211 C-7.01800012588501,-20.398000717163086 -6.875,-8.081999778747559 -6.875,-8.081999778747559 C-6.875,-8.081999778747559 15.161999702453613,-15.574999809265137 20.930999755859375,-7.103000164031982 C24.187999725341797,-2.321000099182129 30.365999221801758,8.972000122070312 15.76099967956543,15.45199966430664 C7.283999919891357,19.211999893188477 -6.839000225067139,21.267000198364258 -21.038000106811523,10.800999641418457 C-21.038000106811523,10.800999641418457 -30.365999221801758,-3.3359999656677246 -30.365999221801758,-3.3359999656677246z"></path></g><g opacity="1" transform="matrix(1,0,0,1,34.3489990234375,12.277000427246094)"><path stroke-linecap="round" stroke-linejoin="round" fill-opacity="0" stroke="rgb(240,121,31)" stroke-opacity="1" stroke-width="1.392" d=" M-3.753999948501587,8.79699993133545 C-3.753999948501587,8.79699993133545 10.543000221252441,-8.79699993133545 0,-7.809999942779541 C-10.543000221252441,-6.822999954223633 -1.812999963760376,-2.7139999866485596 -1.812999963760376,-2.7139999866485596"></path></g></g><g style="display: block;" transform="matrix(1,0,0,1,564.2239990234375,303.4939880371094)" opacity="1"><g opacity="1" transform="matrix(1,0,0,1,44.53900146484375,64.69499969482422)"><path fill="rgb(121,218,231)" fill-opacity="1" d=" M18.18600082397461,-63.525001525878906 C18.18600082397461,-63.525001525878906 35.428001403808594,-58.6870002746582 39.07500076293945,-54.29399871826172 C44.290000915527344,-48.012001037597656 32.6349983215332,-19.680999755859375 32.01300048828125,-8.829000473022461 C30.677000045776367,14.468999862670898 33.641998291015625,42.117000579833984 28.30699920654297,50.138999938964844 C24.368000030517578,56.06100082397461 -36.70000076293945,64.44499969482422 -39.48699951171875,47.715999603271484 C-40.9900016784668,38.694000244140625 -44.290000915527344,-29.97100067138672 -29.145999908447266,-61.25 C-27.599000930786133,-64.44499969482422 -6.181000232696533,-62.80500030517578 -6.181000232696533,-62.80500030517578 C-6.181000232696533,-62.80500030517578 1.4559999704360962,-55.17399978637695 18.18600082397461,-63.525001525878906z"></path></g></g></g></svg>